<?xml version="1.0" standalone="no"?>
<!DOCTYPE svg PUBLIC "-//W3C//DTD SVG 20010904//EN"
 "http://www.w3.org/TR/2001/REC-SVG-20010904/DTD/svg10.dtd">
<svg version="1.0" xmlns="http://www.w3.org/2000/svg"
 width="700.000000pt" height="700.000000pt" viewBox="0 0 700.000000 700.000000"
 preserveAspectRatio="xMidYMid meet">
<metadata>
Created by potrace 1.11, written by Peter Selinger 2001-2013
</metadata>
<g transform="translate(0.000000,700.000000) scale(0.100000,-0.100000)"
fill="#000000" stroke="none">
<path d="M1270 5812 c-19 -11 -48 -36 -65 -56 l-30 -38 -3 -1191 -2 -1190 21
-44 c60 -124 248 -124 308 0 21 43 21 47 21 1115 l0 1072 1980 0 1980 0 0
-1980 0 -1980 -1343 0 -1343 0 -44 -22 c-103 -53 -129 -178 -54 -267 55 -65
-42 -62 1566 -59 l1456 3 38 30 c20 17 45 46 55 65 18 33 19 111 19 2230 0
2119 -1 2197 -19 2230 -10 19 -35 48 -55 65 l-38 30 -2206 3 c-2136 2 -2208 2
-2242 -16z"/>
<path d="M3058 4578 l-88 -30 0 -1064 0 -1064 105 0 105 0 0 203 0 202 79 79
78 78 189 -209 c104 -114 224 -247 268 -295 43 -49 82 -88 86 -88 8 0 150 109
150 115 0 3 -124 143 -275 312 l-276 307 226 226 c124 124 225 228 225 231 0
4 -32 33 -71 65 l-70 57 -305 -304 -304 -304 0 758 c0 715 -1 757 -17 756 -10
0 -57 -14 -105 -31z"/>
<path d="M1280 2825 c-71 -33 -103 -82 -103 -162 0 -40 6 -62 26 -92 27 -41
95 -81 138 -81 71 0 144 49 168 113 28 74 -2 169 -65 208 -44 27 -120 34 -164
14z"/>
<path d="M1275 2176 c-70 -31 -115 -122 -95 -196 21 -79 89 -132 170 -132 110
0 183 87 167 202 -14 106 -140 171 -242 126z"/>
<path d="M1274 1532 c-171 -81 -113 -335 76 -334 137 2 217 141 150 260 -45
80 -144 112 -226 74z"/>
<path d="M1995 1524 c-46 -24 -63 -43 -81 -90 -43 -113 42 -234 164 -234 89 0
172 82 172 169 0 50 -38 121 -79 148 -41 28 -130 31 -176 7z"/>
</g>
</svg>
