<?xml version="1.0" encoding="UTF-8" standalone="no"?>
<!-- Created with Inkscape (http://www.inkscape.org/) -->

<svg
   xmlns:dc="http://purl.org/dc/elements/1.1/"
   xmlns:cc="http://creativecommons.org/ns#"
   xmlns:rdf="http://www.w3.org/1999/02/22-rdf-syntax-ns#"
   xmlns:svg="http://www.w3.org/2000/svg"
   xmlns="http://www.w3.org/2000/svg"
   xmlns:sodipodi="http://sodipodi.sourceforge.net/DTD/sodipodi-0.dtd"
   xmlns:inkscape="http://www.inkscape.org/namespaces/inkscape"
   width="900"
   height="900"
   viewBox="0 0 900 900"
   id="svg2"
   version="1.1"
   inkscape:version="0.91 r13725"
   sodipodi:docname="l.svg"
   inkscape:export-filename="C:\inetpub\wwwroot\pi\app\img\l.png"
   inkscape:export-xdpi="90"
   inkscape:export-ydpi="90">
  <defs
     id="defs4" />
  <sodipodi:namedview
     id="base"
     pagecolor="#ffffff"
     bordercolor="#666666"
     borderopacity="1.0"
     inkscape:pageopacity="0.0"
     inkscape:pageshadow="2"
     inkscape:zoom="0.7"
     inkscape:cx="555.7361"
     inkscape:cy="438.44624"
     inkscape:document-units="px"
     inkscape:current-layer="layer1"
     showgrid="false"
     inkscape:window-width="1600"
     inkscape:window-height="847"
     inkscape:window-x="-8"
     inkscape:window-y="-8"
     inkscape:window-maximized="1"
     units="px" />
  <metadata
     id="metadata7">
    <rdf:RDF>
      <cc:Work
         rdf:about="">
        <dc:format>image/svg+xml</dc:format>
        <dc:type
           rdf:resource="http://purl.org/dc/dcmitype/StillImage" />
        <dc:title />
      </cc:Work>
    </rdf:RDF>
  </metadata>
  <g
     inkscape:label="Layer 1"
     inkscape:groupmode="layer"
     id="layer1"
     transform="translate(0,-152.36236)">
    <g
       style="font-style:normal;font-variant:normal;font-weight:normal;font-stretch:normal;font-size:40px;line-height:125%;font-family:Kano;-inkscape-font-specification:Kano;letter-spacing:0px;word-spacing:0px;fill:#34495e;fill-opacity:1;stroke:none"
       id="text4136"
       transform="translate(-62,61.99999)">
      <path
         d="m 560.75,683.98737 19.875,-15.75 -71.25,-79.5 58.875,-58.875 -19.125,-15.75 -78.75,78.375 0,-195.75 -27,9 0,274.125 27,0 0,-52.5 20.625,-20.625 69.75,77.25 z"
         style="font-size:375px;fill:#2c3e50;fill-opacity:1;stroke:none"
         id="path4211"
         inkscape:connector-curvature="0" />
    </g>
    <text
       xml:space="preserve"
       style="font-style:normal;font-weight:normal;font-size:40px;line-height:125%;font-family:sans-serif;letter-spacing:0px;word-spacing:0px;fill:#000000;fill-opacity:1;stroke:none;stroke-width:1px;stroke-linecap:butt;stroke-linejoin:miter;stroke-opacity:1"
       x="403.05087"
       y="218.98634"
       id="text4140"
       sodipodi:linespacing="125%"><tspan
         sodipodi:role="line"
         id="tspan4142"
         x="403.05087"
         y="218.98634" /></text>
    <g
       id="g4171"
       transform="matrix(11.463863,0,0,11.46397,-284.30016,-131.33172)">
      <g
         id="g4173">
        <path
           id="path4175"
           d="m 39.919922,75.349609 c -0.530274,0 -1.040039,-0.20996 -1.410156,-0.579589 -0.379883,-0.380371 -0.589844,-0.890137 -0.589844,-1.420411 0,-0.529785 0.209961,-1.03955 0.589844,-1.409668 0.740234,-0.75 2.069824,-0.75 2.819824,0 0.380371,0.370118 0.590332,0.889649 0.590332,1.409668 0,0.530274 -0.209961,1.04004 -0.580078,1.410157 -0.379883,0.379882 -0.890137,0.589843 -1.419922,0.589843 z"
           inkscape:connector-curvature="0"
           style="fill:#3498db;fill-opacity:1" />
      </g>
      <g
         id="g4177">
        <path
           id="path4179"
           d="m 39.919922,82.609863 c -0.530274,0 -1.040039,-0.220214 -1.410156,-0.589843 -0.379883,-0.370118 -0.589844,-0.890137 -0.589844,-1.410157 0,-0.530273 0.209961,-1.049804 0.589844,-1.419922 0.740234,-0.740234 2.069824,-0.740234 2.819824,0 0.380371,0.379883 0.590332,0.889649 0.590332,1.419922 0,0.52002 -0.209961,1.040039 -0.580078,1.410157 -0.379883,0.369628 -0.899903,0.589843 -1.419922,0.589843 z"
           inkscape:connector-curvature="0"
           style="fill:#3498db;fill-opacity:1" />
      </g>
      <g
         id="g4181">
        <path
           id="path4183"
           d="m 48.07959,89.859863 c -0.519531,0 -1.039551,-0.209961 -1.409668,-0.580078 -0.370117,-0.379883 -0.590332,-0.890136 -0.590332,-1.419922 0,-0.520019 0.220215,-1.040039 0.590332,-1.410156 0.739746,-0.75 2.080078,-0.75 2.830078,0 0.369629,0.370117 0.57959,0.890137 0.57959,1.410156 0,0.529786 -0.209961,1.040039 -0.57959,1.419922 -0.380371,0.370117 -0.890137,0.580078 -1.42041,0.580078 z"
           inkscape:connector-curvature="0"
           style="fill:#3498db;fill-opacity:1" />
      </g>
      <g
         id="g4185"
         style="fill:#34495e;fill-opacity:1">
        <path
           id="path4187"
           d="m 39.919922,89.859863 c -0.530274,0 -1.040039,-0.209961 -1.410156,-0.580078 -0.379883,-0.379883 -0.589844,-0.890136 -0.589844,-1.419922 0,-0.520019 0.209961,-1.040039 0.589844,-1.410156 0.740234,-0.75 2.069824,-0.75 2.819824,0 0.380371,0.370117 0.590332,0.890137 0.590332,1.410156 0,0.529786 -0.209961,1.040039 -0.580078,1.410157 -0.379883,0.379882 -0.899903,0.589843 -1.419922,0.589843 z"
           inkscape:connector-curvature="0"
           style="fill:#2c3e50;fill-opacity:1" />
      </g>
      <g
         id="g4189">
        <path
           id="path4191"
           d="m 88.222656,90.168945 -31.726562,0 c -1.104492,0 -2,-0.895508 -2,-2 0,-1.104492 0.895508,-2 2,-2 l 29.726562,0 0,-44.33789 -44.338379,0 0,23.617187 c 0,1.104492 -0.895507,2 -2,2 -1.104492,0 -2,-0.895508 -2,-2 l 0,-25.617187 c 0,-1.104493 0.895508,-2 2,-2 l 48.338379,0 c 1.104492,0 2,0.895507 2,2 l 0,48.33789 c 0,1.104492 -0.895508,2 -2,2 z"
           inkscape:connector-curvature="0"
           style="fill:#3498db;fill-opacity:1" />
      </g>
    </g>
  </g>
</svg>
